<?xml version="1.0" encoding="UTF-8" standalone="no" ?>
<!DOCTYPE svg PUBLIC "-//W3C//DTD SVG 1.1//EN" "http://www.w3.org/Graphics/SVG/1.1/DTD/svg11.dtd">
<svg xmlns="http://www.w3.org/2000/svg" xmlns:xlink="http://www.w3.org/1999/xlink" version="1.1" width="1280" height="1024" viewBox="0 0 1280 1024" xml:space="preserve">
<desc>Created with Fabric.js 5.3.0</desc>
<defs>
</defs>
<g transform="matrix(1 0 0 1 640 512)" id="background-logo"  >
<rect style="stroke: none; stroke-width: 0; stroke-dasharray: none; stroke-linecap: butt; stroke-dashoffset: 0; stroke-linejoin: miter; stroke-miterlimit: 4; fill: rgb(18,25,27); fill-rule: nonzero; opacity: 1;"  paint-order="stroke"  x="-640" y="-512" rx="0" ry="0" width="1280" height="1024" />
</g>
<g transform="matrix(1.9211538461538462 0 0 1.9211538461538462 640.4250552884616 695.5136777976759)" id="text-logo"  >
<g style=""  paint-order="stroke"   >
		<g transform="matrix(1 0 0 1 0 0)" id="text-logo-path-0"  >
<path style="stroke: none; stroke-width: 0.6276595744680843; stroke-dasharray: none; stroke-linecap: butt; stroke-dashoffset: 0; stroke-linejoin: miter; stroke-miterlimit: 4; fill: rgb(62,201,168); fill-rule: nonzero; opacity: 1;"  paint-order="stroke"  transform=" translate(-122.425, 20.65)" d="M 23.6 -3.54 L 24.07 -3.54 L 35.64 -21.3 L 35.64 0 L 45.55 0 L 45.55 -41.3 L 39.83 -41.3 L 23.84 -20.65 L 7.85 -41.3 L 2.12 -41.3 L 2.12 0 L 12.04 0 L 12.04 -21.3 Z M 52.51 0 L 64.66 0 L 67.44 -5.9 L 82.07 -5.9 L 84.84 0 L 97 0 L 79.3 -41.3 L 70.21 -41.3 Z M 69.38 -14.51 L 74.75 -27.79 L 80.12 -14.51 Z M 104.02 0 L 115.7 0 L 115.7 -10.68 L 120.83 -10.68 C 131.04 -10.68 138.24 -16.52 138.24 -25.96 C 138.24 -35.4 131.04 -41.3 120.83 -41.3 L 104.02 -41.3 Z M 115.7 -20.53 L 115.7 -31.39 L 120.83 -31.39 C 124.14 -31.39 126.44 -29.44 126.44 -25.96 C 126.44 -22.48 124.14 -20.53 120.83 -20.53 Z M 144.84 0 L 156.53 0 L 156.53 -41.3 L 144.84 -41.3 Z M 164.02 0 L 175.7 0 L 175.7 -15.81 L 188.51 -15.81 L 188.51 -25.61 L 175.7 -25.61 L 175.7 -31.51 L 190.87 -31.51 L 190.87 -41.3 L 164.02 -41.3 Z M 214.82 0 L 226.5 0 L 226.5 -17.52 L 242.73 -41.3 L 230.87 -41.3 L 220.66 -25.43 L 210.45 -41.3 L 198.59 -41.3 L 214.82 -17.52 Z" stroke-linecap="round" />
</g>
</g>
</g>
<g transform="matrix(1.9211538461538462 0 0 1.9211538461538462 640.0000000000001 452.92335716877267)" id="tagline-83fdfb2a-8044-4ad8-b129-1c6be14b1c43-logo"  >
<g style=""  paint-order="stroke"   >
		<g transform="matrix(1 0 0 1 0 0)" id="tagline-83fdfb2a-8044-4ad8-b129-1c6be14b1c43-logo-path-0"  >
<linearGradient id="SVGID_483042" gradientUnits="userSpaceOnUse" gradientTransform="matrix(1 0 0 1 12.349999999999994 -133)"  x1="-12.350000000000023" y1="-34.03659999999999" x2="-12.350000000000023" y2="180.9634">
<stop offset="0%" style="stop-color:rgb(66,230,149);stop-opacity: 1"/>
<stop offset="100%" style="stop-color:rgb(59,178,184);stop-opacity: 1"/>
</linearGradient>
<path style="stroke: rgb(255,255,255); stroke-width: 0; stroke-dasharray: none; stroke-linecap: butt; stroke-dashoffset: 0; stroke-linejoin: miter; stroke-miterlimit: 4; fill: url(#SVGID_483042); fill-rule: nonzero; opacity: 1;"  paint-order="stroke"  transform=" translate(-106.39999999999999, 66.5)" d="M 57 -133 L 12.35 -133 L 12.35 0 L 54.15 0 L 54.15 -61.37 L 82.65 0 L 130.15 0 L 158.65 -61.37 L 158.65 0 L 200.45 0 L 200.45 -133 L 155.8 -133 L 106.4 -26.6 Z" stroke-linecap="round" />
</g>
</g>
</g>
</svg>