<svg xmlns="http://www.w3.org/2000/svg" stroke="currentColor" stroke-width="1.75" stroke-linecap="round" stroke-linejoin="round" fill="none" width="24" height="24" viewBox="0 0 24 24">
  <circle cx="12" cy="12" r="3"/>
  <path d="M19.4 15a1.65 1.65 0 0 0 .33 1.82l.06.06a2 2 0 1 1-2.83 2.83l-.06-.06A1.65 1.65 0 0 0 15 19.4a1.65 1.65 0 0 0-1 .6 1.65 1.65 0 0 0-.33 1.82 2 2 0 1 1-3.34 0 1.65 1.65 0 0 0-.33-1.82 1.65 1.65 0 0 0-1-.6 1.65 1.65 0 0 0-1.82.33l-.06.06a2 2 0 1 1-2.83-2.83l.06-.06A1.65 1.65 0 0 0 4.6 15a1.65 1.65 0 0 0-.6-1 1.65 1.65 0 0 0-1.82-.33 2 2 0 1 1 0-3.34 1.65 1.65 0 0 0 1.82-.33 1.65 1.65 0 0 0 .6-1 1.65 1.65 0 0 0-.33-1.82l-.06-.06A2 2 0 1 1 7.04 4.3l.06.06A1.65 1.65 0 0 0 9 4.6c.39 0 .76-.14 1-.39a1.65 1.65 0 0 0 .33-1.82 2 2 0 1 1 3.34 0 1.65 1.65 0 0 0 .33 1.82c.24.25.61.39 1 .39.39 0 .76-.14 1-.39l.06-.06A2 2 0 1 1 19.7 7.04l-.06.06c-.46.46-.6 1.14-.33 1.82.27.68.88 1.14 1.6 1.14.39 0 .76-.14 1-.39a2 2 0 1 1 0 3.34c-.24-.25-.61-.39-1-.39-.72 0-1.33.46-1.6 1.14z"/>
</svg>